<svg width="45" height="45" viewBox="0 0 45 45" fill="none" xmlns="http://www.w3.org/2000/svg">
<g id="map-icon">
<path id="Vector" d="M22.5 33.75L14.1263 21.6562C12.7556 20.0012 11.873 17.9819 11.5811 15.8337C11.2892 13.6854 11.6 11.4965 12.4775 9.52194C13.355 7.54737 14.7629 5.8684 16.5373 4.68055C18.3117 3.4927 20.3795 2.84487 22.5 2.8125C25.4394 2.84221 28.2475 4.06209 30.3092 6.20496C32.371 8.34783 33.5183 11.239 33.5 14.2453C33.5011 16.8679 32.6281 19.4125 31.025 21.4594L22.5 33.75ZM22.5 5.625C20.2888 5.65097 18.1781 6.57334 16.6312 8.18959C15.0844 9.80583 14.228 11.9838 14.25 14.2453C14.2592 16.3094 14.9853 18.3031 16.2988 19.8703L22.5 28.8563L28.8663 19.6875C30.0764 18.1427 30.7402 16.2247 30.75 14.2453C30.772 11.9838 29.9156 9.80583 28.3688 8.18959C26.822 6.57334 24.7112 5.65097 22.5 5.625Z" fill="white"/>
<path id="Vector_2" d="M22.5 15.4688C24.0188 15.4688 25.25 14.2096 25.25 12.6562C25.25 11.1029 24.0188 9.84375 22.5 9.84375C20.9812 9.84375 19.75 11.1029 19.75 12.6562C19.75 14.2096 20.9812 15.4688 22.5 15.4688Z" fill="white"/>
<path id="Vector_3" d="M39 16.875H36.25V19.6875H39V39.375H6V19.6875H8.75V16.875H6C5.27065 16.875 4.57118 17.1713 4.05546 17.6988C3.53973 18.2262 3.25 18.9416 3.25 19.6875V39.375C3.25 40.1209 3.53973 40.8363 4.05546 41.3637C4.57118 41.8912 5.27065 42.1875 6 42.1875H39C39.7293 42.1875 40.4288 41.8912 40.9445 41.3637C41.4603 40.8363 41.75 40.1209 41.75 39.375V19.6875C41.75 18.9416 41.4603 18.2262 40.9445 17.6988C40.4288 17.1713 39.7293 16.875 39 16.875Z" fill="white"/>
</g>
</svg>
